<svg id="Layer_1" data-name="Layer 1" xmlns="http://www.w3.org/2000/svg" viewBox="0 0 140 65"><defs><style>.cls-1{fill:#0058b3;}.cls-2{fill:#f2c836;}.cls-3{fill:#5d9ed8;}.cls-4{fill:#333;}</style></defs><title>brand-logo5</title><path class="cls-1" d="M15.4,26.69H33.05a1,1,0,0,1,.82,1.58L7.72,65,14,27.86A1.41,1.41,0,0,1,15.4,26.69Z" transform="translate(0)"/><path class="cls-2" d="M19,35.9c.38-2.28.25-1.52.25-1.52h0L25.09,0,.43,34.64a2.33,2.33,0,0,0,1.9,3.67H20.52C19.42,38.24,18.71,37.69,19,35.9Z" transform="translate(0)"/><path class="cls-3" d="M20.57,26.69l-1.3,7.69h0l-.38,2.28c-.28,1.71,2.66,2.92,5.94-.68s7.48-8.81,7.48-8.81h0a1.18,1.18,0,0,1,.89-.48Z" transform="translate(0)"/><path class="cls-4" d="M43.91,12.14H54.82v3.08H50.88V28.33H47.69V15.22H43.91Z" transform="translate(0)"/><path class="cls-4" d="M57.9,12.14h11v3.08H61.09v3.45h7v3.08h-7v3.5h8.16v3.08H57.9Z" transform="translate(0)"/><path class="cls-4" d="M84.69,27a6.36,6.36,0,0,1-1,.59,8.82,8.82,0,0,1-1.74.66,7.92,7.92,0,0,1-2.29.26,9.14,9.14,0,0,1-3.42-.69A7.43,7.43,0,0,1,73.7,26a8,8,0,0,1-1.59-2.57,8.66,8.66,0,0,1-.55-3.11A9.86,9.86,0,0,1,72.12,17a7.66,7.66,0,0,1,1.61-2.67,7.15,7.15,0,0,1,2.49-1.73A8,8,0,0,1,79.43,12a8.82,8.82,0,0,1,2.89.44,9.54,9.54,0,0,1,2,.95l-1.25,3a9,9,0,0,0-1.46-.87,4.7,4.7,0,0,0-2.1-.45,4.38,4.38,0,0,0-1.78.38,4.66,4.66,0,0,0-1.49,1.09,5.21,5.21,0,0,0-1,1.64,5.44,5.44,0,0,0-.38,2,6.3,6.3,0,0,0,.34,2.13,4.81,4.81,0,0,0,1,1.66,4.45,4.45,0,0,0,1.53,1.07,5.14,5.14,0,0,0,2,.37A5.55,5.55,0,0,0,82,25a5.29,5.29,0,0,0,1.4-.88Z" transform="translate(0)"/><path class="cls-4" d="M101.5,12.14V28.33H98.31V21.75H91.07v6.58H87.88V12.14h3.19v6.53h7.24V12.14Z" transform="translate(0)"/><path class="cls-4" d="M120.18,29,107.9,17.9l.95.53.07,9.9h-3.24V11.5h.13l12,11-.71-.31-.06-10.09h3.21V29Z" transform="translate(0)"/><path class="cls-4" d="M123.46,20.25a8,8,0,0,1,.64-3.17,8.49,8.49,0,0,1,4.39-4.46,8.11,8.11,0,0,1,6.41,0,8.73,8.73,0,0,1,2.65,1.81,8.53,8.53,0,0,1,1.8,2.65,8,8,0,0,1,.65,3.17,8.06,8.06,0,0,1-.65,3.22,8.17,8.17,0,0,1-1.8,2.62,8.64,8.64,0,0,1-2.65,1.78,8.47,8.47,0,0,1-6.41,0,8.28,8.28,0,0,1-2.62-1.78,8.15,8.15,0,0,1-2.41-5.84Zm3.3,0a5.42,5.42,0,0,0,.38,2,5.36,5.36,0,0,0,1.08,1.65A5.15,5.15,0,0,0,129.83,25a5,5,0,0,0,2,.39,4.71,4.71,0,0,0,1.92-.39,4.78,4.78,0,0,0,1.55-1.11,5.54,5.54,0,0,0,1-5.71,5.3,5.3,0,0,0-1.06-1.66,4.68,4.68,0,0,0-1.57-1.11,4.88,4.88,0,0,0-5.5,1.11,5,5,0,0,0-1.06,1.66A5.48,5.48,0,0,0,126.76,20.25Z" transform="translate(0)"/><path class="cls-4" d="M45.2,37.42h2.14V51.28h8.07v2H45.2Z" transform="translate(0)"/><path class="cls-4" d="M57.61,45.38a7.82,7.82,0,0,1,.63-3.11A8.29,8.29,0,0,1,60,39.68a8.54,8.54,0,0,1,2.58-1.79,7.76,7.76,0,0,1,3.16-.64,7.65,7.65,0,0,1,3.13.64,8.5,8.5,0,0,1,2.6,1.79,8.18,8.18,0,0,1,1.77,2.59,7.66,7.66,0,0,1,.64,3.11,8,8,0,0,1-2.41,5.76,8.36,8.36,0,0,1-2.6,1.74,8,8,0,0,1-3.13.62,8.09,8.09,0,0,1-3.16-.61A8.33,8.33,0,0,1,60,51.17a7.87,7.87,0,0,1-1.75-2.57A8.15,8.15,0,0,1,57.61,45.38Zm2.2,0a6,6,0,0,0,1.74,4.26A5.78,5.78,0,0,0,63.44,51a5.68,5.68,0,0,0,2.33.48A5.59,5.59,0,0,0,68.08,51,5.5,5.5,0,0,0,70,49.67a6.27,6.27,0,0,0,1.26-1.92,6,6,0,0,0,.46-2.37A6.05,6.05,0,0,0,71.21,43a6.29,6.29,0,0,0-1.28-2A6.1,6.1,0,0,0,68,39.76a5.78,5.78,0,0,0-2.31-.47,5.5,5.5,0,0,0-2.33.49,6.1,6.1,0,0,0-1.89,1.31A5.9,5.9,0,0,0,60.25,43,6.44,6.44,0,0,0,59.81,45.41Z" transform="translate(0)"/><path class="cls-4" d="M89.91,52a3.85,3.85,0,0,1-.93.56,9.79,9.79,0,0,1-1.3.5,11.82,11.82,0,0,1-1.48.35,8.06,8.06,0,0,1-1.42.13,9.58,9.58,0,0,1-3.44-.59,7.9,7.9,0,0,1-2.62-1.65,7.33,7.33,0,0,1-1.67-2.49,8.07,8.07,0,0,1-.58-3.1,9.1,9.1,0,0,1,.65-3.55,7.61,7.61,0,0,1,4.38-4.31,8.64,8.64,0,0,1,3.13-.56,9.57,9.57,0,0,1,2.57.33,8.85,8.85,0,0,1,2.09.83l-.72,2a5.89,5.89,0,0,0-1.09-.49c-.44-.14-.88-.26-1.33-.36a6.67,6.67,0,0,0-1.28-.14,7.11,7.11,0,0,0-2.55.43,5.36,5.36,0,0,0-2,1.23A5.45,5.45,0,0,0,79.11,43a6.8,6.8,0,0,0-.44,2.54,6.1,6.1,0,0,0,.44,2.37,5.31,5.31,0,0,0,1.25,1.86,5.55,5.55,0,0,0,2,1.21,6.85,6.85,0,0,0,2.49.43,7.85,7.85,0,0,0,1.61-.16,4.82,4.82,0,0,0,1.36-.48V47.58H84.61v-2h5.3Z" transform="translate(0)"/><path class="cls-4" d="M97.61,48l-5.9-10.61h2.62l4.73,8.78-.66,0,4.69-8.82h2.59L99.74,48v5.3H97.61Z" transform="translate(0)"/></svg>